# xmcd
#
# Track frame offsets:
#	150
#	4006
#	17466
#	21595
#	38674
#	39403
#	50963
#	63442
#	77592
#	87285
#	95692
#	109425
#	125377
#	126081
#	135328
#	148922
#	163922
#	173146
#	175876
#	186903
#	199243
#
# Disc length: 2942 seconds
#
# Revision: 1
# Processed by: cddbd v1.5.2PL0 Copyright (c) Steve Scherf et al.
# Submitted via: audiograbber 1.83.01
#
DISCID=280b7c15
DTITLE=Stocket Nutz - Weiss Blaue G'schichten
DYEAR=2007
DGENRE=HipHop
TTITLE0=Intro
TTITLE1=Bayernstyle
TTITLE2=Bayern Skit
TTITLE3=Weiﬂ Blaue G'schichten
TTITLE4=Opa Skit
TTITLE5=eL≥ - Steig auf dein' Bock
TTITLE6=eL≥ - Nichts und niemand
TTITLE7=Der Sohn - Ich genieﬂe es
TTITLE8=Der Sohn - Kurze Ansage
TTITLE9=Der Sohn - Fakes
TTITLE10=Der Sohn - Schuhschrank
TTITLE11=Der Sohn feat. Jack Dragon - 59ers
TTITLE12=Opa Skit 2
TTITLE13=16+16=32
TTITLE14=Oh Oh (Stocket Nutz)
TTITLE15=Bomben im Schrank
TTITLE16=Stocket Nutzshit
TTITLE17=Bayern Skit 2
TTITLE18=WBG
TTITLE19=77 Exklusive
TTITLE20=The Conquerors
EXTD=
EXTT0=
EXTT1=
EXTT2=
EXTT3=
EXTT4=
EXTT5=
EXTT6=
EXTT7=
EXTT8=
EXTT9=
EXTT10=
EXTT11=
EXTT12=
EXTT13=
EXTT14=
EXTT15=
EXTT16=
EXTT17=
EXTT18=
EXTT19=
EXTT20=
PLAYORDER=
